<svg width="527" height="135" viewBox="0 0 527 135" fill="none" xmlns="http://www.w3.org/2000/svg">
<path fill-rule="evenodd" clip-rule="evenodd" d="M59.5 0L0 34.4139V100.586L59.5 135L119 100.586V34.4139L59.5 0ZM13.1847 93.3046V41.9956L25.774 34.4139L34.3139 54.8652L42.7656 24.872L55.6122 17.4417V117.499L42.7656 110.069V63.6707L36.6804 80.943H32.1165L25.774 63.6707V100.586L13.1847 93.3046ZM63.3878 117.499V17.4417L105.815 41.9956V57.5745H93.1378V49.5708L76.2344 39.7942V63.6707H94.6591V76.7096H76.2344V110.069L63.3878 117.499Z" fill="#E5622A"/>
<path d="M160.819 87H150.964V35.9H162.206L178.485 74.152L194.764 35.9H206.006V87H196.151V54.004L182.354 87H174.616L160.819 54.004V87ZM236.932 87L236.202 82.547C234.986 84.0557 233.599 85.248 232.041 86.124C230.533 87 228.489 87.438 225.909 87.438C223.476 87.438 221.335 87.0243 219.485 86.197C217.685 85.321 216.273 84.1287 215.251 82.62C214.229 81.0627 213.718 79.2377 213.718 77.145C213.718 74.079 214.813 71.5483 217.003 69.553C219.242 67.509 222.6 66.2193 227.077 65.684L236.202 64.662V62.107C236.202 61.085 235.74 60.136 234.815 59.26C233.891 58.384 232.431 57.946 230.435 57.946C228.683 57.946 227.15 58.384 225.836 59.26C224.571 60.0873 223.719 61.3527 223.281 63.056L215.251 60.136C216.225 56.8753 218.074 54.369 220.799 52.617C223.525 50.865 226.883 49.989 230.873 49.989C235.74 49.989 239.39 51.2057 241.823 53.639C244.305 56.0237 245.546 59.187 245.546 63.129V87H236.932ZM236.202 71.159L228.318 72.181C226.712 72.3757 225.496 72.8623 224.668 73.641C223.841 74.371 223.427 75.2713 223.427 76.342C223.427 77.364 223.841 78.24 224.668 78.97C225.496 79.6513 226.664 79.992 228.172 79.992C229.876 79.992 231.311 79.6757 232.479 79.043C233.696 78.4103 234.621 77.4857 235.253 76.269C235.886 75.0523 236.202 73.5437 236.202 71.743V71.159ZM280.316 50.5H288.784V81.598C288.784 85.7347 287.762 89.2873 285.718 92.256C283.674 95.2733 280.705 97.585 276.812 99.191C272.967 100.797 268.344 101.6 262.942 101.6L261.482 93.716C267.371 93.6187 271.824 92.5723 274.841 90.577C277.907 88.5817 279.44 85.7103 279.44 81.963V81.817L280.681 81.379C279.513 83.0823 277.907 84.5423 275.863 85.759C273.819 86.927 271.386 87.511 268.563 87.511C265.351 87.511 262.528 86.7323 260.095 85.175C257.662 83.6177 255.739 81.452 254.328 78.678C252.965 75.8553 252.284 72.546 252.284 68.75C252.284 64.954 252.965 61.6447 254.328 58.822C255.739 55.9993 257.662 53.8337 260.095 52.325C262.528 50.7677 265.351 49.989 268.563 49.989C270.218 49.989 271.751 50.2323 273.162 50.719C274.622 51.157 275.887 51.7653 276.958 52.544C278.077 53.274 279.002 54.1013 279.732 55.026L280.316 50.5ZM262.358 68.75C262.358 71.816 263.137 74.298 264.694 76.196C266.251 78.0453 268.344 78.97 270.972 78.97C272.481 78.97 273.868 78.5807 275.133 77.802C276.398 76.9747 277.42 75.7823 278.199 74.225C279.026 72.6677 279.44 70.8427 279.44 68.75C279.44 66.56 279.026 64.7107 278.199 63.202C277.42 61.6933 276.374 60.5497 275.06 59.771C273.795 58.9437 272.432 58.53 270.972 58.53C268.344 58.53 266.251 59.479 264.694 61.377C263.137 63.2263 262.358 65.684 262.358 68.75ZM314.309 87.511C310.659 87.511 307.447 86.708 304.673 85.102C301.899 83.496 299.733 81.2573 298.176 78.386C296.667 75.5147 295.913 72.2053 295.913 68.458C295.913 64.8567 296.667 61.669 298.176 58.895C299.685 56.121 301.777 53.9553 304.454 52.398C307.179 50.792 310.27 49.989 313.725 49.989C317.229 49.989 320.319 50.7433 322.996 52.252C325.673 53.7607 327.741 55.8777 329.201 58.603C330.71 61.2797 331.464 64.4187 331.464 68.02C331.464 68.5553 331.415 69.1637 331.318 69.845C331.269 70.4777 331.196 71.159 331.099 71.889H305.987C306.182 73.4463 306.668 74.7847 307.447 75.904C308.274 76.9747 309.272 77.8263 310.44 78.459C311.657 79.043 313.019 79.335 314.528 79.335C316.329 79.335 317.935 78.97 319.346 78.24C320.806 77.4613 321.852 76.4637 322.485 75.247L330.807 77.729C329.347 80.8437 327.157 83.2527 324.237 84.956C321.366 86.6593 318.056 87.511 314.309 87.511ZM321.244 65.1C321.195 63.7373 320.83 62.5207 320.149 61.45C319.468 60.3307 318.567 59.479 317.448 58.895C316.329 58.2623 315.088 57.946 313.725 57.946C312.508 57.946 311.365 58.2623 310.294 58.895C309.223 59.5277 308.299 60.3793 307.52 61.45C306.79 62.472 306.303 63.6887 306.06 65.1H321.244ZM339.025 35.9H374.941V44.149H348.88V57.143H368.371V65.1H348.88V87H339.025V35.9ZM393.44 87.511C389.887 87.511 386.724 86.7567 383.95 85.248C381.176 83.6907 378.986 81.525 377.38 78.751C375.822 75.9283 375.044 72.619 375.044 68.823C375.044 64.9783 375.847 61.6447 377.453 58.822C379.107 55.9993 381.346 53.8337 384.169 52.325C386.991 50.7677 390.155 49.989 393.659 49.989C397.163 49.989 400.326 50.7677 403.149 52.325C405.971 53.8337 408.21 55.9993 409.865 58.822C411.519 61.596 412.347 64.881 412.347 68.677C412.347 72.5217 411.495 75.8553 409.792 78.678C408.137 81.5007 405.874 83.6907 403.003 85.248C400.18 86.7567 396.992 87.511 393.44 87.511ZM393.367 79.116C394.875 79.116 396.311 78.751 397.674 78.021C399.036 77.2423 400.156 76.0987 401.032 74.59C401.908 73.0327 402.346 71.0617 402.346 68.677C402.346 66.3897 401.932 64.4917 401.105 62.983C400.277 61.4257 399.182 60.282 397.82 59.552C396.506 58.7733 395.07 58.384 393.513 58.384C392.004 58.384 390.593 58.7733 389.279 59.552C388.013 60.282 386.991 61.4257 386.213 62.983C385.483 64.4917 385.118 66.4383 385.118 68.823C385.118 71.1103 385.483 73.0327 386.213 74.59C386.943 76.0987 387.94 77.2423 389.206 78.021C390.471 78.751 391.858 79.116 393.367 79.116ZM419.5 50.5H427.968L428.625 55.172C429.647 53.9067 430.79 52.8847 432.056 52.106C433.37 51.2787 434.805 50.719 436.363 50.427C437.92 50.0863 439.55 50.1107 441.254 50.5V59.26C439.94 58.822 438.553 58.7003 437.093 58.895C435.681 59.0897 434.343 59.6007 433.078 60.428C431.861 61.2553 430.839 62.4477 430.012 64.005C429.233 65.5137 428.844 67.436 428.844 69.772V87H419.5V50.5ZM472.725 50.5H481.193V81.598C481.193 85.7347 480.171 89.2873 478.127 92.256C476.083 95.2733 473.115 97.585 469.221 99.191C465.377 100.797 460.753 101.6 455.351 101.6L453.891 93.716C459.78 93.6187 464.233 92.5723 467.25 90.577C470.316 88.5817 471.849 85.7103 471.849 81.963V81.817L473.09 81.379C471.922 83.0823 470.316 84.5423 468.272 85.759C466.228 86.927 463.795 87.511 460.972 87.511C457.76 87.511 454.938 86.7323 452.504 85.175C450.071 83.6177 448.149 81.452 446.737 78.678C445.375 75.8553 444.693 72.546 444.693 68.75C444.693 64.954 445.375 61.6447 446.737 58.822C448.149 55.9993 450.071 53.8337 452.504 52.325C454.938 50.7677 457.76 49.989 460.972 49.989C462.627 49.989 464.16 50.2323 465.571 50.719C467.031 51.157 468.297 51.7653 469.367 52.544C470.487 53.274 471.411 54.1013 472.141 55.026L472.725 50.5ZM454.767 68.75C454.767 71.816 455.546 74.298 457.103 76.196C458.661 78.0453 460.753 78.97 463.381 78.97C464.89 78.97 466.277 78.5807 467.542 77.802C468.808 76.9747 469.83 75.7823 470.608 74.225C471.436 72.6677 471.849 70.8427 471.849 68.75C471.849 66.56 471.436 64.7107 470.608 63.202C469.83 61.6933 468.783 60.5497 467.469 59.771C466.204 58.9437 464.841 58.53 463.381 58.53C460.753 58.53 458.661 59.479 457.103 61.377C455.546 63.2263 454.767 65.684 454.767 68.75ZM506.718 87.511C503.068 87.511 499.856 86.708 497.082 85.102C494.308 83.496 492.142 81.2573 490.585 78.386C489.076 75.5147 488.322 72.2053 488.322 68.458C488.322 64.8567 489.076 61.669 490.585 58.895C492.094 56.121 494.186 53.9553 496.863 52.398C499.588 50.792 502.679 49.989 506.134 49.989C509.638 49.989 512.728 50.7433 515.405 52.252C518.082 53.7607 520.15 55.8777 521.61 58.603C523.119 61.2797 523.873 64.4187 523.873 68.02C523.873 68.5553 523.824 69.1637 523.727 69.845C523.678 70.4777 523.605 71.159 523.508 71.889H498.396C498.591 73.4463 499.077 74.7847 499.856 75.904C500.683 76.9747 501.681 77.8263 502.849 78.459C504.066 79.043 505.428 79.335 506.937 79.335C508.738 79.335 510.344 78.97 511.755 78.24C513.215 77.4613 514.261 76.4637 514.894 75.247L523.216 77.729C521.756 80.8437 519.566 83.2527 516.646 84.956C513.775 86.6593 510.465 87.511 506.718 87.511ZM513.653 65.1C513.604 63.7373 513.239 62.5207 512.558 61.45C511.877 60.3307 510.976 59.479 509.857 58.895C508.738 58.2623 507.497 57.946 506.134 57.946C504.917 57.946 503.774 58.2623 502.703 58.895C501.632 59.5277 500.708 60.3793 499.929 61.45C499.199 62.472 498.712 63.6887 498.469 65.1H513.653Z" fill="white"/>
<path d="M157.428 121.151C156.367 121.151 155.378 120.964 154.461 120.591C153.558 120.219 152.763 119.696 152.075 119.022C151.401 118.334 150.871 117.524 150.484 116.592C150.111 115.646 149.925 114.607 149.925 113.475C149.925 112.343 150.111 111.311 150.484 110.379C150.871 109.433 151.401 108.623 152.075 107.949C152.763 107.261 153.558 106.731 154.461 106.358C155.378 105.986 156.367 105.799 157.428 105.799C158.474 105.799 159.449 105.986 160.352 106.358C161.269 106.731 162.065 107.261 162.739 107.949C163.412 108.623 163.935 109.433 164.308 110.379C164.695 111.311 164.889 112.343 164.889 113.475C164.889 114.607 164.695 115.646 164.308 116.592C163.935 117.524 163.412 118.334 162.739 119.022C162.065 119.696 161.269 120.219 160.352 120.591C159.449 120.964 158.474 121.151 157.428 121.151ZM157.428 119.645C158.503 119.645 159.471 119.395 160.331 118.893C161.191 118.391 161.871 117.682 162.373 116.764C162.875 115.833 163.126 114.736 163.126 113.475C163.126 112.199 162.875 111.103 162.373 110.185C161.871 109.254 161.191 108.544 160.331 108.057C159.471 107.555 158.503 107.304 157.428 107.304C156.339 107.304 155.357 107.555 154.483 108.057C153.623 108.544 152.942 109.254 152.44 110.185C151.938 111.103 151.688 112.199 151.688 113.475C151.688 114.736 151.938 115.833 152.44 116.764C152.942 117.682 153.623 118.391 154.483 118.893C155.357 119.395 156.339 119.645 157.428 119.645ZM168.893 118.828L169.065 118.807V125.3H167.452V110.25H168.936L169.043 112.249C169.373 111.647 169.86 111.139 170.505 110.723C171.15 110.307 171.96 110.099 172.935 110.099C173.867 110.099 174.705 110.329 175.45 110.787C176.196 111.232 176.783 111.87 177.213 112.701C177.643 113.518 177.858 114.493 177.858 115.625C177.858 116.743 177.651 117.718 177.235 118.549C176.834 119.366 176.26 120.004 175.515 120.462C174.784 120.921 173.924 121.151 172.935 121.151C171.903 121.151 171.05 120.928 170.376 120.484C169.703 120.04 169.208 119.488 168.893 118.828ZM176.117 115.625C176.117 114.392 175.794 113.418 175.149 112.701C174.519 111.97 173.666 111.604 172.591 111.604C171.917 111.604 171.308 111.762 170.763 112.077C170.233 112.393 169.817 112.851 169.516 113.453C169.215 114.055 169.065 114.779 169.065 115.625C169.065 116.456 169.215 117.173 169.516 117.775C169.817 118.377 170.233 118.843 170.763 119.172C171.308 119.488 171.917 119.645 172.591 119.645C173.666 119.645 174.519 119.287 175.149 118.57C175.794 117.839 176.117 116.858 176.117 115.625ZM185.006 121.151C184.003 121.151 183.107 120.907 182.318 120.419C181.544 119.932 180.935 119.266 180.491 118.42C180.047 117.574 179.824 116.607 179.824 115.517C179.824 114.471 180.047 113.539 180.491 112.722C180.935 111.905 181.544 111.268 182.318 110.809C183.092 110.336 183.974 110.099 184.963 110.099C185.938 110.099 186.805 110.314 187.564 110.744C188.338 111.174 188.94 111.769 189.37 112.529C189.8 113.289 190.001 114.156 189.972 115.13C189.972 115.288 189.965 115.453 189.951 115.625C189.937 115.797 189.922 115.983 189.908 116.184H181.587C181.616 116.858 181.781 117.452 182.082 117.968C182.383 118.484 182.777 118.893 183.264 119.194C183.766 119.481 184.332 119.624 184.963 119.624C185.794 119.624 186.497 119.466 187.07 119.151C187.658 118.836 188.08 118.384 188.338 117.796L189.736 118.355C189.306 119.258 188.682 119.954 187.865 120.441C187.048 120.914 186.095 121.151 185.006 121.151ZM188.209 114.786C188.224 114.17 188.088 113.625 187.801 113.152C187.529 112.679 187.142 112.307 186.64 112.034C186.138 111.762 185.558 111.626 184.898 111.626C184.325 111.626 183.802 111.762 183.329 112.034C182.856 112.307 182.462 112.687 182.146 113.174C181.845 113.647 181.666 114.184 181.609 114.786H188.209ZM192.627 110.25H194.11L194.196 111.776C194.54 111.246 194.992 110.838 195.551 110.551C196.11 110.25 196.762 110.099 197.507 110.099C198.324 110.099 199.041 110.279 199.657 110.637C200.274 110.981 200.754 111.504 201.098 112.206C201.442 112.894 201.614 113.762 201.614 114.808V121H200.001V115.001C200.001 113.883 199.758 113.038 199.27 112.464C198.797 111.877 198.109 111.583 197.206 111.583C196.275 111.583 195.544 111.891 195.013 112.507C194.497 113.124 194.239 114.034 194.239 115.238V121H192.627V110.25ZM211.778 117.173C211.864 117.56 212.043 117.947 212.315 118.334C212.602 118.707 212.989 119.022 213.476 119.28C213.978 119.524 214.616 119.645 215.39 119.645C216.493 119.645 217.31 119.387 217.841 118.871C218.371 118.355 218.636 117.746 218.636 117.044C218.636 116.485 218.486 116.026 218.185 115.668C217.884 115.31 217.475 115.016 216.959 114.786C216.443 114.543 215.863 114.328 215.218 114.141C214.644 113.984 214.071 113.812 213.498 113.625C212.939 113.425 212.43 113.181 211.971 112.894C211.513 112.593 211.147 112.206 210.875 111.733C210.602 111.26 210.466 110.673 210.466 109.97C210.466 109.125 210.667 108.394 211.068 107.777C211.47 107.147 212.036 106.659 212.767 106.315C213.498 105.971 214.351 105.799 215.325 105.799C216.171 105.799 216.909 105.921 217.54 106.165C218.17 106.409 218.694 106.753 219.109 107.197C219.539 107.627 219.855 108.129 220.055 108.702L218.529 109.282C218.428 108.953 218.235 108.637 217.948 108.336C217.662 108.021 217.289 107.763 216.83 107.562C216.372 107.362 215.848 107.261 215.261 107.261C214.687 107.261 214.164 107.362 213.691 107.562C213.233 107.763 212.867 108.05 212.595 108.422C212.322 108.795 212.186 109.247 212.186 109.777C212.186 110.35 212.344 110.809 212.659 111.153C212.989 111.483 213.419 111.755 213.949 111.97C214.494 112.171 215.089 112.364 215.734 112.55C216.321 112.737 216.888 112.937 217.432 113.152C217.991 113.367 218.486 113.633 218.916 113.948C219.36 114.263 219.711 114.657 219.969 115.13C220.227 115.603 220.356 116.184 220.356 116.872C220.356 117.632 220.177 118.341 219.819 119C219.46 119.645 218.916 120.169 218.185 120.57C217.468 120.957 216.544 121.151 215.411 121.151C214.465 121.151 213.634 121.007 212.917 120.72C212.201 120.419 211.613 120.018 211.154 119.516C210.696 119.015 210.38 118.441 210.208 117.796L211.778 117.173ZM227.757 121.151C226.739 121.151 225.829 120.928 225.027 120.484C224.224 120.04 223.593 119.409 223.135 118.592C222.676 117.761 222.447 116.779 222.447 115.646C222.447 114.5 222.676 113.511 223.135 112.679C223.608 111.848 224.245 111.21 225.048 110.766C225.865 110.322 226.782 110.099 227.8 110.099C228.818 110.099 229.728 110.322 230.531 110.766C231.348 111.21 231.985 111.848 232.444 112.679C232.917 113.496 233.154 114.471 233.154 115.603C233.154 116.75 232.917 117.739 232.444 118.57C231.971 119.402 231.326 120.04 230.509 120.484C229.692 120.928 228.775 121.151 227.757 121.151ZM227.736 119.624C228.366 119.624 228.961 119.488 229.52 119.215C230.079 118.929 230.531 118.492 230.875 117.904C231.233 117.302 231.412 116.542 231.412 115.625C231.412 114.693 231.24 113.934 230.896 113.346C230.552 112.758 230.101 112.328 229.542 112.056C228.997 111.769 228.409 111.626 227.779 111.626C227.148 111.626 226.56 111.769 226.016 112.056C225.471 112.328 225.027 112.765 224.683 113.367C224.353 113.955 224.188 114.708 224.188 115.625C224.188 116.557 224.353 117.316 224.683 117.904C225.012 118.492 225.442 118.929 225.973 119.215C226.517 119.488 227.105 119.624 227.736 119.624ZM244.588 121H243.126L243.019 119.452C242.689 119.997 242.245 120.419 241.686 120.72C241.127 121.007 240.474 121.151 239.729 121.151C238.898 121.151 238.174 120.978 237.558 120.634C236.941 120.29 236.461 119.774 236.117 119.086C235.787 118.398 235.623 117.531 235.623 116.485V110.25H237.214V116.313C237.214 117.417 237.45 118.255 237.923 118.828C238.41 119.387 239.106 119.667 240.009 119.667C240.926 119.667 241.65 119.373 242.18 118.785C242.725 118.183 242.997 117.28 242.997 116.076V110.25H244.588V121ZM247.867 110.25H249.351L249.437 111.819C249.724 111.432 250.068 111.103 250.469 110.83C250.885 110.558 251.336 110.372 251.823 110.271C252.325 110.157 252.855 110.15 253.414 110.25V111.862C252.812 111.748 252.268 111.748 251.78 111.862C251.307 111.977 250.899 112.192 250.555 112.507C250.211 112.823 249.946 113.224 249.759 113.711C249.573 114.184 249.48 114.736 249.48 115.367V121H247.867V110.25ZM259.985 121.151C258.938 121.151 258.021 120.921 257.233 120.462C256.444 120.004 255.828 119.366 255.384 118.549C254.954 117.718 254.739 116.757 254.739 115.668C254.739 114.564 254.954 113.597 255.384 112.765C255.828 111.92 256.444 111.268 257.233 110.809C258.021 110.336 258.938 110.099 259.985 110.099C261.088 110.099 262.056 110.357 262.887 110.873C263.718 111.375 264.32 112.077 264.693 112.98L263.21 113.496C262.995 112.923 262.6 112.472 262.027 112.142C261.468 111.798 260.816 111.626 260.071 111.626C259.34 111.626 258.702 111.791 258.157 112.12C257.627 112.45 257.211 112.916 256.91 113.518C256.623 114.12 256.48 114.829 256.48 115.646C256.48 116.85 256.803 117.818 257.448 118.549C258.093 119.266 258.953 119.624 260.028 119.624C260.759 119.624 261.411 119.459 261.984 119.129C262.557 118.8 262.98 118.355 263.253 117.796L264.715 118.312C264.328 119.201 263.718 119.896 262.887 120.398C262.056 120.9 261.088 121.151 259.985 121.151ZM271.867 121.151C270.863 121.151 269.968 120.907 269.179 120.419C268.405 119.932 267.796 119.266 267.352 118.42C266.907 117.574 266.685 116.607 266.685 115.517C266.685 114.471 266.907 113.539 267.352 112.722C267.796 111.905 268.405 111.268 269.179 110.809C269.953 110.336 270.835 110.099 271.824 110.099C272.798 110.099 273.666 110.314 274.425 110.744C275.199 111.174 275.801 111.769 276.231 112.529C276.661 113.289 276.862 114.156 276.833 115.13C276.833 115.288 276.826 115.453 276.812 115.625C276.797 115.797 276.783 115.983 276.769 116.184H268.448C268.477 116.858 268.642 117.452 268.943 117.968C269.244 118.484 269.638 118.893 270.125 119.194C270.627 119.481 271.193 119.624 271.824 119.624C272.655 119.624 273.357 119.466 273.931 119.151C274.518 118.836 274.941 118.384 275.199 117.796L276.597 118.355C276.167 119.258 275.543 119.954 274.726 120.441C273.909 120.914 272.956 121.151 271.867 121.151ZM275.07 114.786C275.085 114.17 274.948 113.625 274.662 113.152C274.389 112.679 274.002 112.307 273.501 112.034C272.999 111.762 272.419 111.626 271.759 111.626C271.186 111.626 270.663 111.762 270.19 112.034C269.717 112.307 269.323 112.687 269.007 113.174C268.706 113.647 268.527 114.184 268.47 114.786H275.07ZM287.405 121H285.685V105.95H287.577L293.167 118.635L298.736 105.95H300.606V121H298.886V109.347L293.769 121H292.544L287.405 109.347V121ZM310.824 121L310.695 119.065C310.394 119.724 309.95 120.24 309.362 120.613C308.775 120.971 308.029 121.151 307.126 121.151C306.352 121.151 305.693 121.029 305.148 120.785C304.604 120.541 304.181 120.197 303.88 119.753C303.593 119.294 303.45 118.757 303.45 118.14C303.45 117.237 303.787 116.499 304.46 115.926C305.134 115.338 306.109 114.98 307.384 114.851L310.695 114.485V113.625C310.695 113.023 310.473 112.543 310.029 112.185C309.585 111.812 308.983 111.626 308.223 111.626C307.478 111.626 306.854 111.798 306.352 112.142C305.865 112.486 305.528 112.98 305.342 113.625L303.88 113.109C304.167 112.163 304.69 111.425 305.449 110.895C306.223 110.365 307.162 110.099 308.266 110.099C309.542 110.099 310.531 110.429 311.233 111.088C311.95 111.733 312.308 112.615 312.308 113.733V121H310.824ZM310.695 115.861L307.363 116.248C306.646 116.334 306.102 116.535 305.729 116.85C305.356 117.151 305.17 117.553 305.17 118.054C305.17 118.556 305.349 118.957 305.707 119.258C306.08 119.559 306.61 119.71 307.298 119.71C308.087 119.71 308.732 119.552 309.233 119.237C309.735 118.922 310.101 118.499 310.33 117.968C310.574 117.424 310.695 116.836 310.695 116.205V115.861ZM323.71 110.25H325.193V119.022C325.193 120.341 324.9 121.466 324.312 122.398C323.724 123.344 322.871 124.06 321.753 124.548C320.635 125.049 319.274 125.3 317.668 125.3L317.41 123.817C319.431 123.788 320.965 123.365 322.011 122.548C323.058 121.745 323.581 120.57 323.581 119.022V118.785L323.753 118.828C323.423 119.459 322.929 120.004 322.269 120.462C321.61 120.907 320.757 121.136 319.711 121.151C318.722 121.151 317.855 120.928 317.109 120.484C316.378 120.025 315.805 119.38 315.389 118.549C314.988 117.718 314.787 116.743 314.787 115.625C314.787 114.507 314.988 113.539 315.389 112.722C315.805 111.891 316.378 111.246 317.109 110.787C317.855 110.329 318.722 110.099 319.711 110.099C320.356 110.099 320.929 110.2 321.431 110.4C321.933 110.587 322.363 110.845 322.721 111.174C323.079 111.49 323.373 111.848 323.602 112.249L323.71 110.25ZM316.529 115.625C316.529 116.858 316.844 117.839 317.475 118.57C318.12 119.287 318.987 119.645 320.076 119.645C320.736 119.645 321.331 119.488 321.861 119.172C322.391 118.857 322.807 118.398 323.108 117.796C323.423 117.194 323.581 116.471 323.581 115.625C323.581 114.779 323.423 114.063 323.108 113.475C322.807 112.873 322.391 112.414 321.861 112.099C321.331 111.769 320.736 111.604 320.076 111.604C319.001 111.604 318.141 111.97 317.496 112.701C316.851 113.432 316.529 114.407 316.529 115.625ZM333.007 121.151C332.004 121.151 331.108 120.907 330.32 120.419C329.546 119.932 328.937 119.266 328.492 118.42C328.048 117.574 327.826 116.607 327.826 115.517C327.826 114.471 328.048 113.539 328.492 112.722C328.937 111.905 329.546 111.268 330.32 110.809C331.094 110.336 331.975 110.099 332.964 110.099C333.939 110.099 334.806 110.314 335.566 110.744C336.34 111.174 336.942 111.769 337.372 112.529C337.802 113.289 338.003 114.156 337.974 115.13C337.974 115.288 337.967 115.453 337.952 115.625C337.938 115.797 337.924 115.983 337.909 116.184H329.589C329.618 116.858 329.782 117.452 330.083 117.968C330.384 118.484 330.779 118.893 331.266 119.194C331.768 119.481 332.334 119.624 332.964 119.624C333.796 119.624 334.498 119.466 335.071 119.151C335.659 118.836 336.082 118.384 336.34 117.796L337.737 118.355C337.307 119.258 336.684 119.954 335.867 120.441C335.05 120.914 334.097 121.151 333.007 121.151ZM336.211 114.786C336.225 114.17 336.089 113.625 335.802 113.152C335.53 112.679 335.143 112.307 334.641 112.034C334.14 111.762 333.559 111.626 332.9 111.626C332.327 111.626 331.803 111.762 331.33 112.034C330.857 112.307 330.463 112.687 330.148 113.174C329.847 113.647 329.668 114.184 329.61 114.786H336.211ZM340.628 110.25H342.112L342.198 111.776C342.542 111.246 342.993 110.838 343.552 110.551C344.111 110.25 344.763 110.099 345.509 110.099C346.326 110.099 347.042 110.279 347.659 110.637C348.275 110.981 348.755 111.504 349.099 112.206C349.443 112.894 349.615 113.762 349.615 114.808V121H348.003V115.001C348.003 113.883 347.759 113.038 347.272 112.464C346.799 111.877 346.111 111.583 345.208 111.583C344.276 111.583 343.545 111.891 343.015 112.507C342.499 113.124 342.241 114.034 342.241 115.238V121H340.628V110.25ZM353.431 110.25V107.24H355.043V110.25H357.903V111.755H355.043V117.538C355.043 118.198 355.18 118.678 355.452 118.979C355.739 119.28 356.097 119.459 356.527 119.516C356.971 119.574 357.43 119.574 357.903 119.516V120.914C357.344 121.043 356.792 121.079 356.247 121.022C355.717 120.964 355.237 120.806 354.807 120.548C354.391 120.276 354.054 119.896 353.796 119.409C353.553 118.922 353.431 118.298 353.431 117.538V111.755H351.818V110.25H353.431ZM364.945 121.151C363.928 121.151 363.018 120.928 362.215 120.484C361.412 120.04 360.782 119.409 360.323 118.592C359.864 117.761 359.635 116.779 359.635 115.646C359.635 114.5 359.864 113.511 360.323 112.679C360.796 111.848 361.434 111.21 362.236 110.766C363.053 110.322 363.971 110.099 364.988 110.099C366.006 110.099 366.916 110.322 367.719 110.766C368.536 111.21 369.174 111.848 369.632 112.679C370.105 113.496 370.342 114.471 370.342 115.603C370.342 116.75 370.105 117.739 369.632 118.57C369.159 119.402 368.514 120.04 367.697 120.484C366.88 120.928 365.963 121.151 364.945 121.151ZM364.924 119.624C365.555 119.624 366.149 119.488 366.708 119.215C367.267 118.929 367.719 118.492 368.063 117.904C368.421 117.302 368.6 116.542 368.6 115.625C368.6 114.693 368.428 113.934 368.084 113.346C367.74 112.758 367.289 112.328 366.73 112.056C366.185 111.769 365.598 111.626 364.967 111.626C364.336 111.626 363.749 111.769 363.204 112.056C362.659 112.328 362.215 112.765 361.871 113.367C361.541 113.955 361.376 114.708 361.376 115.625C361.376 116.557 361.541 117.316 361.871 117.904C362.201 118.492 362.631 118.929 363.161 119.215C363.706 119.488 364.293 119.624 364.924 119.624ZM384.148 105.95C385.81 105.95 387.229 106.258 388.405 106.874C389.594 107.476 390.504 108.344 391.135 109.476C391.78 110.608 392.103 111.956 392.103 113.518C392.103 115.066 391.78 116.399 391.135 117.517C390.504 118.635 389.594 119.495 388.405 120.097C387.229 120.699 385.81 121 384.148 121H379.181V105.95H384.148ZM384.148 119.495C386.197 119.495 387.745 118.972 388.792 117.925C389.838 116.879 390.361 115.41 390.361 113.518C390.361 111.612 389.838 110.128 388.792 109.067C387.745 107.992 386.197 107.455 384.148 107.455H380.901V119.495H384.148ZM399.187 121.151C398.184 121.151 397.288 120.907 396.5 120.419C395.726 119.932 395.116 119.266 394.672 118.42C394.228 117.574 394.006 116.607 394.006 115.517C394.006 114.471 394.228 113.539 394.672 112.722C395.116 111.905 395.726 111.268 396.5 110.809C397.274 110.336 398.155 110.099 399.144 110.099C400.119 110.099 400.986 110.314 401.746 110.744C402.52 111.174 403.122 111.769 403.552 112.529C403.982 113.289 404.182 114.156 404.154 115.13C404.154 115.288 404.146 115.453 404.132 115.625C404.118 115.797 404.103 115.983 404.089 116.184H395.769C395.797 116.858 395.962 117.452 396.263 117.968C396.564 118.484 396.958 118.893 397.446 119.194C397.947 119.481 398.513 119.624 399.144 119.624C399.975 119.624 400.678 119.466 401.251 119.151C401.839 118.836 402.262 118.384 402.52 117.796L403.917 118.355C403.487 119.258 402.864 119.954 402.047 120.441C401.23 120.914 400.276 121.151 399.187 121.151ZM402.391 114.786C402.405 114.17 402.269 113.625 401.982 113.152C401.71 112.679 401.323 112.307 400.821 112.034C400.319 111.762 399.739 111.626 399.08 111.626C398.506 111.626 397.983 111.762 397.51 112.034C397.037 112.307 396.643 112.687 396.328 113.174C396.027 113.647 395.847 114.184 395.79 114.786H402.391ZM407.221 110.25L410.618 119.194L414.037 110.25H415.735L411.435 121H409.758L405.501 110.25H407.221ZM422.241 121.151C421.237 121.151 420.342 120.907 419.553 120.419C418.779 119.932 418.17 119.266 417.726 118.42C417.281 117.574 417.059 116.607 417.059 115.517C417.059 114.471 417.281 113.539 417.726 112.722C418.17 111.905 418.779 111.268 419.553 110.809C420.327 110.336 421.209 110.099 422.198 110.099C423.172 110.099 424.04 110.314 424.799 110.744C425.573 111.174 426.175 111.769 426.605 112.529C427.035 113.289 427.236 114.156 427.207 115.13C427.207 115.288 427.2 115.453 427.186 115.625C427.171 115.797 427.157 115.983 427.143 116.184H418.822C418.851 116.858 419.016 117.452 419.317 117.968C419.618 118.484 420.012 118.893 420.499 119.194C421.001 119.481 421.567 119.624 422.198 119.624C423.029 119.624 423.731 119.466 424.305 119.151C424.892 118.836 425.315 118.384 425.573 117.796L426.971 118.355C426.541 119.258 425.917 119.954 425.1 120.441C424.283 120.914 423.33 121.151 422.241 121.151ZM425.444 114.786C425.459 114.17 425.322 113.625 425.036 113.152C424.763 112.679 424.376 112.307 423.875 112.034C423.373 111.762 422.793 111.626 422.133 111.626C421.56 111.626 421.037 111.762 420.564 112.034C420.091 112.307 419.697 112.687 419.381 113.174C419.08 113.647 418.901 114.184 418.844 114.786H425.444ZM429.862 105.52H431.474V121H429.862V105.52ZM439.398 121.151C438.38 121.151 437.47 120.928 436.667 120.484C435.864 120.04 435.234 119.409 434.775 118.592C434.316 117.761 434.087 116.779 434.087 115.646C434.087 114.5 434.316 113.511 434.775 112.679C435.248 111.848 435.886 111.21 436.689 110.766C437.506 110.322 438.423 110.099 439.441 110.099C440.458 110.099 441.368 110.322 442.171 110.766C442.988 111.21 443.626 111.848 444.085 112.679C444.558 113.496 444.794 114.471 444.794 115.603C444.794 116.75 444.558 117.739 444.085 118.57C443.612 119.402 442.967 120.04 442.15 120.484C441.333 120.928 440.415 121.151 439.398 121.151ZM439.376 119.624C440.007 119.624 440.602 119.488 441.161 119.215C441.72 118.929 442.171 118.492 442.515 117.904C442.873 117.302 443.053 116.542 443.053 115.625C443.053 114.693 442.881 113.934 442.537 113.346C442.193 112.758 441.741 112.328 441.182 112.056C440.637 111.769 440.05 111.626 439.419 111.626C438.788 111.626 438.201 111.769 437.656 112.056C437.111 112.328 436.667 112.765 436.323 113.367C435.993 113.955 435.829 114.708 435.829 115.625C435.829 116.557 435.993 117.316 436.323 117.904C436.653 118.492 437.083 118.929 437.613 119.215C438.158 119.488 438.745 119.624 439.376 119.624ZM448.876 118.828L449.048 118.807V125.3H447.435V110.25H448.919L449.026 112.249C449.356 111.647 449.843 111.139 450.488 110.723C451.133 110.307 451.943 110.099 452.918 110.099C453.849 110.099 454.688 110.329 455.433 110.787C456.179 111.232 456.766 111.87 457.196 112.701C457.626 113.518 457.841 114.493 457.841 115.625C457.841 116.743 457.633 117.718 457.218 118.549C456.816 119.366 456.243 120.004 455.498 120.462C454.767 120.921 453.907 121.151 452.918 121.151C451.886 121.151 451.033 120.928 450.359 120.484C449.686 120.04 449.191 119.488 448.876 118.828ZM456.1 115.625C456.1 114.392 455.777 113.418 455.132 112.701C454.502 111.97 453.649 111.604 452.574 111.604C451.9 111.604 451.291 111.762 450.746 112.077C450.216 112.393 449.8 112.851 449.499 113.453C449.198 114.055 449.048 114.779 449.048 115.625C449.048 116.456 449.198 117.173 449.499 117.775C449.8 118.377 450.216 118.843 450.746 119.172C451.291 119.488 451.9 119.645 452.574 119.645C453.649 119.645 454.502 119.287 455.132 118.57C455.777 117.839 456.1 116.858 456.1 115.625ZM464.989 121.151C463.986 121.151 463.09 120.907 462.301 120.419C461.527 119.932 460.918 119.266 460.474 118.42C460.03 117.574 459.807 116.607 459.807 115.517C459.807 114.471 460.03 113.539 460.474 112.722C460.918 111.905 461.527 111.268 462.301 110.809C463.075 110.336 463.957 110.099 464.946 110.099C465.921 110.099 466.788 110.314 467.547 110.744C468.321 111.174 468.923 111.769 469.353 112.529C469.783 113.289 469.984 114.156 469.955 115.13C469.955 115.288 469.948 115.453 469.934 115.625C469.92 115.797 469.905 115.983 469.891 116.184H461.57C461.599 116.858 461.764 117.452 462.065 117.968C462.366 118.484 462.76 118.893 463.247 119.194C463.749 119.481 464.315 119.624 464.946 119.624C465.777 119.624 466.48 119.466 467.053 119.151C467.641 118.836 468.063 118.384 468.321 117.796L469.719 118.355C469.289 119.258 468.665 119.954 467.848 120.441C467.031 120.914 466.078 121.151 464.989 121.151ZM468.192 114.786C468.207 114.17 468.071 113.625 467.784 113.152C467.512 112.679 467.125 112.307 466.623 112.034C466.121 111.762 465.541 111.626 464.881 111.626C464.308 111.626 463.785 111.762 463.312 112.034C462.839 112.307 462.445 112.687 462.129 113.174C461.828 113.647 461.649 114.184 461.592 114.786H468.192ZM472.61 110.25H474.093L474.179 111.819C474.466 111.432 474.81 111.103 475.211 110.83C475.627 110.558 476.078 110.372 476.566 110.271C477.067 110.157 477.598 110.15 478.157 110.25V111.862C477.555 111.748 477.01 111.748 476.523 111.862C476.05 111.977 475.641 112.192 475.297 112.507C474.953 112.823 474.688 113.224 474.502 113.711C474.315 114.184 474.222 114.736 474.222 115.367V121H472.61V110.25ZM485.652 105.95H496.94V107.455H492.167V121H490.447V107.455H485.652V105.95ZM502.113 121.151C501.095 121.151 500.185 120.928 499.382 120.484C498.58 120.04 497.949 119.409 497.49 118.592C497.032 117.761 496.802 116.779 496.802 115.646C496.802 114.5 497.032 113.511 497.49 112.679C497.963 111.848 498.601 111.21 499.404 110.766C500.221 110.322 501.138 110.099 502.156 110.099C503.174 110.099 504.084 110.322 504.886 110.766C505.703 111.21 506.341 111.848 506.8 112.679C507.273 113.496 507.509 114.471 507.509 115.603C507.509 116.75 507.273 117.739 506.8 118.57C506.327 119.402 505.682 120.04 504.865 120.484C504.048 120.928 503.131 121.151 502.113 121.151ZM502.091 119.624C502.722 119.624 503.317 119.488 503.876 119.215C504.435 118.929 504.886 118.492 505.23 117.904C505.589 117.302 505.768 116.542 505.768 115.625C505.768 114.693 505.596 113.934 505.252 113.346C504.908 112.758 504.456 112.328 503.897 112.056C503.353 111.769 502.765 111.626 502.134 111.626C501.504 111.626 500.916 111.769 500.371 112.056C499.827 112.328 499.382 112.765 499.038 113.367C498.709 113.955 498.544 114.708 498.544 115.625C498.544 116.557 498.709 117.316 499.038 117.904C499.368 118.492 499.798 118.929 500.328 119.215C500.873 119.488 501.461 119.624 502.091 119.624ZM514.795 121.151C513.777 121.151 512.867 120.928 512.064 120.484C511.261 120.04 510.631 119.409 510.172 118.592C509.713 117.761 509.484 116.779 509.484 115.646C509.484 114.5 509.713 113.511 510.172 112.679C510.645 111.848 511.283 111.21 512.086 110.766C512.903 110.322 513.82 110.099 514.838 110.099C515.855 110.099 516.765 110.322 517.568 110.766C518.385 111.21 519.023 111.848 519.482 112.679C519.955 113.496 520.191 114.471 520.191 115.603C520.191 116.75 519.955 117.739 519.482 118.57C519.009 119.402 518.364 120.04 517.547 120.484C516.73 120.928 515.812 121.151 514.795 121.151ZM514.773 119.624C515.404 119.624 515.999 119.488 516.558 119.215C517.117 118.929 517.568 118.492 517.912 117.904C518.27 117.302 518.45 116.542 518.45 115.625C518.45 114.693 518.278 113.934 517.934 113.346C517.59 112.758 517.138 112.328 516.579 112.056C516.034 111.769 515.447 111.626 514.816 111.626C514.185 111.626 513.598 111.769 513.053 112.056C512.508 112.328 512.064 112.765 511.72 113.367C511.39 113.955 511.226 114.708 511.226 115.625C511.226 116.557 511.39 117.316 511.72 117.904C512.05 118.492 512.48 118.929 513.01 119.215C513.555 119.488 514.142 119.624 514.773 119.624ZM522.832 105.52H524.445V121H522.832V105.52Z" fill="#E5622A"/>
</svg>
